<svg xmlns="http://www.w3.org/2000/svg" viewBox="0 0 1024 1024">
   <circle cx="512" cy="512" r="512" style="fill:#e5653c"/>
   <path d="M762.7 399.2C756 238.8 649 155.5 514 152.4a254 254 0 0 0-252.6 248.8v221.5a253 253 0 0 0 194.3 243q27 6 54.5 5.9c138.6 0 252.6-114 252.6-252.7A240 240 0 0 0 737.5 510q25.2-52.5 25.2-110.8M514 374l-3.9-.1a136.7 136.7 0 0 0-136 142 136.7 136.7 0 0 0 140 136 253 253 0 0 0 184.6-83.6A194.3 194.3 0 0 1 512 815.1a195.3 195.3 0 0 1-194.4-194.3V401.2A195.3 195.3 0 0 1 512 206.8a195.3 195.3 0 0 1 192.4 194.4q0 27.7-7.8 54.4A253 253 0 0 0 512 374m159.4 138a195 195 0 0 1-157.5 83.5 84 84 0 0 1-79.6-83.5 84 84 0 0 1 77.7-83.6c63.5 0 123.2 31.3 159.4 83.6" style="fill:#fff"/>
</svg>
