<?xml version="1.0" encoding="UTF-8" standalone="no"?><!DOCTYPE svg PUBLIC "-//W3C//DTD SVG 1.1//EN" "http://www.w3.org/Graphics/SVG/1.1/DTD/svg11.dtd"><svg width="100%" height="100%" viewBox="0 0 1024 1024" version="1.1" xmlns="http://www.w3.org/2000/svg" xmlns:xlink="http://www.w3.org/1999/xlink" xml:space="preserve" xmlns:serif="http://www.serif.com/" style="fill-rule:evenodd;clip-rule:evenodd;stroke-linejoin:round;stroke-miterlimit:2;"><circle cx="512" cy="512" r="512" style="fill:#e5653c;"/><path d="M762.717,399.225c-6.815,-160.415 -113.832,-243.731 -248.773,-246.83c-137.149,-0.017 -250.551,111.641 -252.661,248.773l-0,221.564c1.328,115.613 81.853,216.269 194.354,242.943c17.872,3.942 36.119,5.93 54.419,5.93c138.606,0 252.661,-114.055 252.661,-252.66c0,-0.034 0,-0.067 0,-0.1c0,-38.871 -8.422,-75.15 -25.266,-108.838c16.844,-34.984 25.266,-71.911 25.266,-110.782Zm-248.773,-25.266c-1.301,-0.038 -2.601,-0.056 -3.902,-0.056c-74.634,-0 -136.048,61.414 -136.048,136.048c-0,0.666 0.005,1.333 0.014,1.999c-0.038,1.315 -0.057,2.63 -0.057,3.945c0,74.633 61.415,136.048 136.048,136.048c1.315,-0 2.63,-0.019 3.945,-0.058c70.478,-0.87 137.472,-31.194 184.636,-83.572c4.799,17.095 7.232,34.768 7.232,52.524c-0,96.185 -71.403,178.628 -166.602,192.363c-9.014,1.274 -18.107,1.914 -27.21,1.914c-106.609,-0 -194.338,-87.717 -194.354,-194.325l-0,-219.621c-0,-106.619 87.734,-194.354 194.354,-194.354c105.881,1.057 192.414,88.458 192.414,194.345c-0,18.419 -2.619,36.746 -7.777,54.428c-47.508,-51.659 -114.455,-81.257 -184.637,-81.628m159.371,137.991c-35.827,51.652 -94.571,82.838 -157.427,83.573c-44.367,-2.066 -79.734,-39.158 -79.686,-83.573c-0.106,-43.726 34.122,-80.522 77.742,-83.572c63.541,0.104 123.152,31.364 159.371,83.572" style="fill:#fff;fill-rule:nonzero;"/></svg>