<svg xmlns="http://www.w3.org/2000/svg" viewBox="0 0 1024 1024">
   <circle cx="512" cy="512" r="512" style="fill:#e5653c"/>
   <path d="M694.8 429.8c-5-117-83-177.7-181.4-180a185 185 0 0 0-184.2 181.4v161.5c1 84.3 59.7 157.7 141.7 177.2q19.6 4.3 39.7 4.3c101 0 184.2-83.2 184.2-184.2v-.1a175 175 0 0 0-18.4-79.4 184 184 0 0 0 18.4-80.7m-184.2-18.5a99.7 99.7 0 0 0-99.2 99.2v4.3a99.7 99.7 0 0 0 102 99.2A184 184 0 0 0 648 553a141.7 141.7 0 0 1-136 180c-77.7 0-141.7-64-141.7-141.7V431.2c0-77.8 64-141.7 141.7-141.7a142.4 142.4 0 0 1 134.6 181.4A184 184 0 0 0 512 411.3M628.2 512a142 142 0 0 1-114.8 60.9 61 61 0 0 1-58-61A61 61 0 0 1 512 451c46.3.1 89.8 22.9 116.2 61" style="fill:#fff"/>
</svg>
