<svg xmlns="http://www.w3.org/2000/svg" viewBox="0 0 1024 1024">
   <circle cx="512" cy="512" r="512" style="fill:#0f1012"/>
   <path d="M262.5 570.5c-1-5 5.2-7.6 8.2-4L457.3 753c3.6 3.6.5 9.2-4 8.2a256 256 0 0 1-190.8-190.7m-6-74q0 2 1.4 3.5l265.9 266.3q2 1.6 4 1.6 18-1.4 35.8-5.2a5 5 0 0 0 2.6-8.1L269.7 458a5.1 5.1 0 0 0-8.7 2.5q-3.6 17.8-4.6 35.8m21.5-88q-1 3.2 1 5.7l331.2 331.3q2.7 2.5 5.2 1l27-13.8q4.2-3 1-7.7l-344-344.5a5 5 0 0 0-7.6 1q-7.6 12.8-13.8 26.6m43.4-59.3a5 5 0 0 1 0-7.2A256 256 0 0 1 512 256.1a257 257 0 0 1 255.6 255.6 256 256 0 0 1-85.4 191.2 5 5 0 0 1-7.1 0z" style="fill:#fff"/>
</svg>
