<svg xmlns="http://www.w3.org/2000/svg" viewBox="0 0 1024 1024">
   <circle cx="512" cy="512" r="512" style="fill:#02721c"/>
   <path d="M688.1 514.6a186 186 0 0 1 11 90.9H386.9q3.5 24.4 14.9 45 16.2 29.5 45 46.5 29 17 65.1 17 36.8 0 65.4-17a121 121 0 0 0 53.6-66c24.7 7.6 34.6 10.4 58.7 17.6A187 187 0 0 1 512 771a186 186 0 0 1-188.5-187.8q0-36.5 12.2-67.9v-75.8q0-53 24.3-95.2A181 181 0 0 1 520 253q49.4 0 87.3 22.5a160 160 0 0 1 59.5 62 185 185 0 0 1 21.7 90.3zm-293.6-77.5q10.3-8 21.8-14.7a187 187 0 0 1 95.6-24.8 188 188 0 0 1 119.4 40.6v-7.7q.3-37.9-13.2-65.3a100 100 0 0 0-38.7-42.3q-25.1-15-60.6-15-37.4 0-65.3 16.2a113 113 0 0 0-43.5 45.2 142 142 0 0 0-15.5 67.8m241.9 119.2a124 124 0 0 0-59.3-84.8 126 126 0 0 0-65.2-16.8 127 127 0 0 0-65 16.8 121 121 0 0 0-59.3 85z" style="fill:#fff"/>
</svg>
